<svg width="1281" height="1281" viewBox="0 0 1281 1281" fill="none" xmlns="http://www.w3.org/2000/svg">
<path d="M594.029 365.737C632.414 333.369 688.539 333.369 726.923 365.737L853.373 472.373C861.354 479.101 859.936 491.681 850.717 496.579C841.277 501.595 831.982 506.993 822.866 512.788C773.206 544.336 732.94 596.435 693.999 646.812C634.672 723.549 578.64 796.029 498.535 796.034H498.509C467.08 796.018 431.258 785.098 392.038 763.553C327.221 727.952 266.337 709.897 211.078 709.897C201.9 709.897 192.904 710.438 184.087 711.449L207.891 691.378L594.029 365.737Z" fill="#FFD600"/>
<path fill-rule="evenodd" clip-rule="evenodd" d="M68.8724 836.589C122.513 751.679 225.735 727.354 368.771 805.933C633.95 951.597 708.492 642.759 848.805 553.596C1025.65 441.222 1250.86 502.786 1207.59 746.307C1205.46 758.299 1188.49 759.846 1184.7 748.266C1141.84 617.476 1014.7 593.393 889.071 671.116C762.518 749.411 720.015 1072.45 368.332 872.534C232.964 795.575 148.353 807.83 85.9224 852.226C75.4408 859.681 62.0049 847.462 68.8775 836.589H68.8724Z" fill="#004A92"/>
<path fill-rule="evenodd" clip-rule="evenodd" d="M975.146 719.193C1118.13 690.589 1165.49 820.333 1127.33 907.836C1122.45 919.049 1106.42 916.75 1104.72 904.639C1097.21 850.875 1049.5 794.436 982.875 794.255C910.663 794.059 842.252 888.285 760.843 932.944C748.413 939.765 736.498 923.092 747.186 913.775C827.146 844.059 883.9 737.444 975.151 719.193H975.146Z" fill="#004A92"/>
<g style="mix-blend-mode:soft-light">
<path fill-rule="evenodd" clip-rule="evenodd" d="M889.071 671.116C762.519 749.41 720.015 1072.45 368.333 872.534C232.964 795.575 148.353 807.83 85.9227 852.226C81.2362 855.562 76.0392 854.84 72.2549 852.185C188.702 754.221 275.695 807.242 449.437 874.695C623.232 942.167 680.481 827.669 723.418 780.618C766.355 733.567 880.807 535.391 1036.76 559.824C1192.71 584.257 1184.71 748.266 1184.71 748.266C1141.84 617.475 1014.7 593.393 889.076 671.116H889.071Z" fill="white"/>
</g>
<g style="mix-blend-mode:soft-light">
<path d="M584.543 531.493C552.814 545.636 521.086 559.736 489.358 573.879C480.748 577.745 470.173 586.474 469.008 609.077C468.307 622.538 471.519 635.227 472.478 648.647C474.525 677.024 465.817 704.633 455.459 715.135C445.122 725.596 433.604 723.322 422.545 721.276C388.651 715.109 357.335 714.867 327.277 720.378C311.774 723.219 295.858 722.559 280.551 718.806C256.551 712.923 233.345 709.897 211.072 709.897C201.895 709.897 192.898 710.438 184.082 711.449L594.029 365.737C597.777 362.576 601.618 359.715 605.547 357.147C628.882 341.892 659.832 358.545 660.404 386.416C661.038 417.186 657.012 446.878 647.257 470.094C630.558 509.932 606.877 521.533 584.543 531.493Z" fill="white"/>
</g>
</svg>
