<?xml version="1.0" encoding="UTF-8"?>
<svg xmlns="http://www.w3.org/2000/svg" viewBox="0 0 7036.53 1245.57">
  <defs>
    <style>
      .cls-1 {
        fill: #004a92;
      }

      .cls-1, .cls-2 {
        fill-rule: evenodd;
      }

      .cls-3 {
        fill: #272828;
      }

      .cls-4 {
        isolation: isolate;
      }

      .cls-5 {
        fill: #ffd600;
      }

      .cls-2, .cls-6 {
        fill: #fff;
        mix-blend-mode: soft-light;
      }
    </style>
  </defs>
  <g class="cls-4">
    <g id="Capa_1">
      <g>
        <g>
          <path class="cls-3" d="M2641.62,45.41v381.51h-49.81V45.41h49.81Z"/>
          <path class="cls-3" d="M3049.17,259.37c-2.83-53.21-6.23-117.74-6.23-164.72h-1.13c-13.58,44.15-28.87,92.26-48.11,144.91l-67.36,185.09h-37.36l-62.26-181.7c-18.11-54.34-32.83-103.02-43.58-148.3h-1.13c-1.13,47.55-3.96,110.94-7.36,168.68l-10.19,163.59h-46.98l26.6-381.51h62.83l65.09,184.53c15.85,46.98,28.3,88.87,38.49,128.49h1.13c10.19-38.49,23.77-80.38,40.76-128.49l67.92-184.53h62.83l23.77,381.51h-48.68l-9.06-167.55Z"/>
          <path class="cls-3" d="M3182.75,52.76c23.77-3.96,54.91-7.36,94.53-7.36,48.68,0,84.34,11.32,106.98,31.7,20.38,18.11,33.4,45.85,33.4,79.81s-10.19,61.7-29.43,81.51c-26.6,27.74-68.49,41.89-116.6,41.89-14.72,0-28.3-.57-39.62-3.4v152.83h-49.25V52.76ZM3231.99,236.73c10.75,2.83,24.34,3.96,40.76,3.96,59.43,0,95.66-29.43,95.66-80.94s-36.23-75.28-90-75.28c-21.51,0-37.92,1.7-46.41,3.96v148.3Z"/>
          <path class="cls-3" d="M3533.12,45.41v226.42c0,84.91,37.92,121.13,88.87,121.13,56.04,0,92.83-37.36,92.83-121.13V45.41h49.81v223.02c0,117.17-61.7,164.72-144.34,164.72-78.11,0-136.98-44.15-136.98-163.02V45.41h49.81Z"/>
          <path class="cls-3" d="M3849.53,45.41h49.81v340.19h163.02v41.32h-212.83V45.41Z"/>
          <path class="cls-3" d="M4111.03,373.14c22.08,14.15,53.77,24.91,87.74,24.91,50.38,0,79.81-26.6,79.81-65.09,0-35.09-20.38-56.04-71.89-75.28-62.26-22.64-100.76-55.47-100.76-108.68,0-59.43,49.25-103.59,123.4-103.59,38.49,0,67.36,9.06,83.77,18.68l-13.58,40.19c-11.89-7.36-37.36-18.11-71.89-18.11-52.08,0-71.89,31.13-71.89,57.17,0,35.66,23.21,53.21,75.85,73.59,64.53,24.91,96.79,56.04,96.79,112.08,0,58.87-43.02,110.38-133.02,110.38-36.79,0-76.98-11.32-97.36-24.91l13.02-41.32Z"/>
          <path class="cls-3" d="M4458.01,306.92l-39.62,120h-50.94l130.19-381.51h58.87l130.19,381.51h-52.64l-40.75-120h-135.28ZM4583.67,268.43l-37.92-109.81c-8.49-24.91-14.15-47.55-19.81-69.62h-1.13c-5.66,22.08-11.32,45.85-19.25,69.06l-37.36,110.38h115.47Z"/>
          <path class="cls-3" d="M3013.85,840.83c-2.33-63.04-4.67-139.32-4.67-215.59h-1.56c-17.12,66.93-38.92,141.65-59.15,203.14l-63.82,204.69h-92.62l-56.04-202.36c-17.12-62.26-34.25-136.98-47.48-205.47h-1.56c-2.33,70.83-5.45,151.77-8.56,217.15l-10.12,199.25h-109.74l33.47-524.58h158l51.37,175.12c17.12,60.71,32.69,126.08,44.36,187.57h3.11c14.01-60.71,31.91-129.98,49.81-188.35l55.26-174.34h155.66l28.02,524.58h-115.19l-8.56-200.8Z"/>
          <path class="cls-3" d="M3543.86,949.8c0,35.8,1.56,70.83,6.23,91.84h-106.63l-7-38.14h-2.34c-24.91,30.35-63.82,46.7-108.96,46.7-77.05,0-122.97-56.04-122.97-116.75,0-98.84,88.73-145.54,223.37-145.54v-4.67c0-21.01-10.9-49.81-69.27-49.81-38.92,0-80.17,13.23-105.07,28.8l-21.79-76.27c26.46-14.79,78.61-34.25,147.88-34.25,126.86,0,166.56,74.72,166.56,165v133.09ZM3429.45,861.85c-62.26,0-110.52,14.79-110.52,59.93,0,30.35,20.24,45.14,46.7,45.14,28.8,0,53.7-19.46,61.49-43.58,1.56-6.23,2.33-13.23,2.33-20.24v-41.25Z"/>
          <path class="cls-3" d="M3637.26,938.9c21.79,13.23,66.93,28.02,101.96,28.02s50.59-11.67,50.59-31.13-11.67-29.58-55.26-44.36c-79.39-26.46-109.74-69.27-108.96-114.41,0-71.6,60.71-125.31,154.88-125.31,44.36,0,83.28,10.9,106.63,22.57l-20.24,81.72c-17.12-9.34-50.59-21.79-82.5-21.79-28.8,0-45.14,11.67-45.14,30.35s14.79,28.02,61.49,44.36c72.38,24.91,101.96,62.26,102.74,117.52,0,71.6-55.26,123.75-164.22,123.75-49.81,0-94.17-11.67-122.97-27.24l21.01-84.06Z"/>
          <path class="cls-3" d="M3975.81,788.69c0-49.81-1.56-91.84-3.11-127.64h102.74l5.45,52.92h1.56c28.02-39.69,71.6-61.49,126.86-61.49,83.28,0,158,72.38,158,193.8,0,138.54-87.95,203.92-172.78,203.92-45.92,0-81.72-18.68-98.84-43.58h-1.56v189.13h-118.3v-407.05ZM4094.11,878.19c0,9.34.78,17.12,2.33,24.91,7.78,31.91,35.02,56.04,69.27,56.04,51.37,0,81.72-42.81,81.72-107.41,0-60.71-27.24-106.63-80.17-106.63-33.47,0-63.04,24.91-70.83,59.93-1.56,6.23-2.33,14.01-2.33,21.01v52.15Z"/>
          <path class="cls-3" d="M4758,949.8c0,35.8,1.56,70.83,6.23,91.84h-106.63l-7-38.14h-2.34c-24.91,30.35-63.82,46.7-108.96,46.7-77.05,0-122.97-56.04-122.97-116.75,0-98.84,88.73-145.54,223.37-145.54v-4.67c0-21.01-10.9-49.81-69.27-49.81-38.92,0-80.17,13.23-105.07,28.8l-21.79-76.27c26.46-14.79,78.61-34.25,147.88-34.25,126.86,0,166.56,74.72,166.56,165v133.09ZM4643.59,861.85c-62.26,0-110.52,14.79-110.52,59.93,0,30.35,20.24,45.14,46.7,45.14,28.8,0,53.7-19.46,61.49-43.58,1.56-6.23,2.33-13.23,2.33-20.24v-41.25Z"/>
          <path class="cls-3" d="M4852.18,489.04h118.3v552.59h-118.3V489.04Z"/>
          <path class="cls-3" d="M5442.12,847.06c0,139.32-98.84,203.14-200.8,203.14-111.3,0-196.91-73.16-196.91-196.13s80.94-202.36,203.92-202.36c115.97,0,193.8,80.17,193.8,195.35ZM5166.6,850.95c0,65.38,27.24,114.41,77.83,114.41,46.7,0,75.5-45.92,75.5-115.19,0-56.04-21.79-113.63-75.5-113.63s-77.83,58.37-77.83,114.41Z"/>
          <path class="cls-3" d="M5515.28,782.46c0-47.48-1.56-87.17-3.11-121.41h100.4l4.67,51.37h2.33c16.34-24.91,50.59-60.71,115.19-60.71,49.81,0,87.95,25.68,104.29,65.38h1.56c14.79-20.24,31.13-35.8,49.81-46.7,21.01-11.67,44.36-18.68,72.38-18.68,73.16,0,128.42,51.37,128.42,165.78v224.15h-115.19v-207.03c0-55.26-17.9-87.17-56.04-87.17-28.02,0-46.7,18.68-55.26,41.25-2.33,8.56-3.89,20.24-3.89,30.35v222.59h-115.19v-214.03c0-47.48-17.12-80.17-55.26-80.17-30.35,0-48.25,23.35-55.26,42.03-3.89,9.34-4.67,20.24-4.67,30.35v221.82h-115.19v-259.17Z"/>
          <path class="cls-3" d="M6501.38,949.8c0,35.8,1.56,70.83,6.23,91.84h-106.63l-7-38.14h-2.34c-24.91,30.35-63.82,46.7-108.96,46.7-77.05,0-122.97-56.04-122.97-116.75,0-98.84,88.73-145.54,223.37-145.54v-4.67c0-21.01-10.9-49.81-69.27-49.81-38.92,0-80.17,13.23-105.07,28.8l-21.79-76.27c26.46-14.79,78.61-34.25,147.88-34.25,126.86,0,166.56,74.72,166.56,165v133.09ZM6386.97,861.85c-62.26,0-110.52,14.79-110.52,59.93,0,30.35,20.24,45.14,46.7,45.14,28.8,0,53.7-19.46,61.49-43.58,1.56-6.23,2.33-13.23,2.33-20.24v-41.25Z"/>
          <path class="cls-3" d="M6594.78,938.9c21.79,13.23,66.93,28.02,101.96,28.02s50.59-11.67,50.59-31.13-11.67-29.58-55.26-44.36c-79.39-26.46-109.74-69.27-108.96-114.41,0-71.6,60.71-125.31,154.88-125.31,44.36,0,83.28,10.9,106.63,22.57l-20.24,81.72c-17.12-9.34-50.59-21.79-82.5-21.79-28.8,0-45.14,11.67-45.14,30.35s14.79,28.02,61.49,44.36c72.38,24.91,101.96,62.26,102.74,117.52,0,71.6-55.26,123.75-164.22,123.75-49.81,0-94.17-11.67-122.97-27.24l21.01-84.06Z"/>
        </g>
        <g>
          <g>
            <path class="cls-5" d="M1197.81,92.49c74.45-62.78,183.31-62.78,257.76,0l245.26,206.83c15.48,13.05,12.73,37.45-5.15,46.95-18.31,9.73-36.34,20.2-54.02,31.44-96.32,61.19-174.42,162.24-249.95,259.95-115.07,148.84-223.75,289.42-379.12,289.43h-.05c-60.96-.03-130.44-21.21-206.51-63-125.72-69.05-243.81-104.07-350.99-104.07-17.8,0-35.25,1.05-52.35,3.01l46.17-38.93L1197.81,92.49Z"/>
            <g>
              <path class="cls-1" d="M179.22,1005.75c104.04-164.69,304.25-211.87,581.68-59.46,514.34,282.53,658.92-316.49,931.07-489.43,343-217.96,779.82-98.55,695.9,373.78-4.13,23.26-37.04,26.26-44.4,3.8-83.14-253.68-329.74-300.39-573.4-149.64-245.46,151.86-327.9,778.42-1010.02,390.67-262.56-149.27-426.67-125.5-547.76-39.39-20.33,14.46-46.39-9.24-33.06-30.33Z"/>
              <path class="cls-1" d="M1937.02,778.05c277.33-55.48,369.18,196.17,295.18,365.89-9.48,21.75-40.57,17.29-43.85-6.2-14.58-104.28-107.12-213.75-236.34-214.1-140.06-.38-272.75,182.38-430.65,269-24.11,13.23-47.22-19.11-26.49-37.18,155.09-135.22,265.17-342.01,442.16-377.41Z"/>
            </g>
            <path class="cls-2" d="M1770.07,684.8c-245.46,151.86-327.9,778.42-1010.02,390.67-262.56-149.27-426.67-125.5-547.76-39.39-9.09,6.47-19.17,5.07-26.51-.08,225.86-190.01,394.59-87.17,731.58,43.66,337.09,130.87,448.13-91.21,531.41-182.47,83.28-91.26,305.27-475.64,607.75-428.25,302.48,47.39,286.96,365.5,286.96,365.5-83.14-253.68-329.74-300.39-573.4-149.64Z"/>
          </g>
          <path class="cls-6" d="M1179.41,413.99c-61.54,27.43-123.08,54.78-184.62,82.21-16.7,7.5-37.21,24.43-39.47,68.27-1.36,26.11,4.87,50.72,6.73,76.75,3.97,55.04-12.92,108.59-33.01,128.96-20.05,20.29-42.39,15.88-63.84,11.91-65.74-11.96-126.48-12.43-184.78-1.74-30.07,5.51-60.94,4.23-90.63-3.05-46.55-11.41-91.56-17.28-134.76-17.28-17.8,0-35.25,1.05-52.35,3.01L1197.81,92.49c7.27-6.13,14.72-11.68,22.34-16.66,45.26-29.59,105.29,2.71,106.4,56.77,1.23,59.68-6.58,117.27-25.5,162.3-32.39,77.27-78.32,99.77-121.64,119.09Z"/>
        </g>
      </g>
    </g>
  </g>
</svg>